<svg width="1696" height="941" xmlns="http://www.w3.org/2000/svg"><g><path d="M-49,-66L-77,94L91,99Z" fill="#f9f8fc" stroke="#f9f8fc"/><path d="M-49,-66L91,99L16,-121Z" fill="#f8f7fb" stroke="#f8f7fb"/><path d="M16,-121L91,99L234,-58Z" fill="#f3f3f8" stroke="#f3f3f8"/><path d="M16,-121L234,-58L475,-118Z" fill="#ededf5" stroke="#ededf5"/><path d="M16,-121L475,-118L863,-129Z" fill="#e0e0ef" stroke="#e0e0ef"/><path d="M234,-58L91,99L233,105Z" fill="#f0eff7" stroke="#f0eff7"/><path d="M234,-58L233,105L427,-47Z" fill="#e9e9f4" stroke="#e9e9f4"/><path d="M234,-58L427,-47L475,-118Z" fill="#e4e5f1" stroke="#e4e5f1"/><path d="M427,-47L233,105L428,103Z" fill="#e5e6f2" stroke="#e5e6f2"/><path d="M427,-47L428,103L582,107Z" fill="#dedfee" stroke="#dedfee"/><path d="M427,-47L582,107L475,-118Z" fill="#dddeed" stroke="#dddeed"/><path d="M475,-118L582,107L693,16Z" fill="#d8d7ea" stroke="#d8d7ea"/><path d="M475,-118L693,16L711,-70Z" fill="#d5d4e8" stroke="#d5d4e8"/><path d="M475,-118L711,-70L863,-129Z" fill="#d1d0e6" stroke="#d1d0e6"/><path d="M711,-70L693,16L806,35Z" fill="#cecce3" stroke="#cecce3"/><path d="M711,-70L806,35L863,-129Z" fill="#cbc9e2" stroke="#cbc9e2"/><path d="M863,-129L806,35L946,-126Z" fill="#c6c4e0" stroke="#c6c4e0"/><path d="M863,-129L946,-126L1829,-113Z" fill="#b5a8d1" stroke="#b5a8d1"/><path d="M946,-126L806,35L1019,100Z" fill="#c3c1de" stroke="#c3c1de"/><path d="M946,-126L1019,100L1122,-26Z" fill="#bdb9da" stroke="#bdb9da"/><path d="M946,-126L1122,-26L1271,-83Z" fill="#b9b1d6" stroke="#b9b1d6"/><path d="M946,-126L1271,-83L1829,-113Z" fill="#ac97c9" stroke="#ac97c9"/><path d="M1122,-26L1019,100L1125,17Z" fill="#bab3d7" stroke="#bab3d7"/><path d="M1122,-26L1125,17L1253,47Z" fill="#b7acd3" stroke="#b7acd3"/><path d="M1122,-26L1253,47L1271,-83Z" fill="#b4a8d1" stroke="#b4a8d1"/><path d="M1271,-83L1253,47L1410,-29Z" fill="#ae9ccb" stroke="#ae9ccb"/><path d="M1271,-83L1410,-29L1624,-65Z" fill="#a68cc4" stroke="#a68cc4"/><path d="M1271,-83L1624,-65L1829,-113Z" fill="#9d80bc" stroke="#9d80bc"/><path d="M1410,-29L1253,47L1442,35Z" fill="#aa94c8" stroke="#aa94c8"/><path d="M1410,-29L1442,35L1624,-65Z" fill="#a285c0" stroke="#a285c0"/><path d="M1624,-65L1442,35L1576,69Z" fill="#9f80bd" stroke="#9f80bd"/><path d="M1624,-65L1576,69L1753,84Z" fill="#9880b7" stroke="#9880b7"/><path d="M1624,-65L1753,84L1764,-43Z" fill="#9480b3" stroke="#9480b3"/><path d="M1624,-65L1764,-43L1829,-113Z" fill="#9280b2" stroke="#9280b2"/><path d="M1764,-43L1753,84L1859,33Z" fill="#8e80af" stroke="#8e80af"/><path d="M1764,-43L1859,33L1829,-113Z" fill="#8d80ad" stroke="#8d80ad"/><path d="M-77,94L-101,350L-73,252Z" fill="#f1f1fd" stroke="#f1f1fd"/><path d="M-77,94L-73,252L91,99Z" fill="#f8f7fc" stroke="#f8f7fc"/><path d="M91,99L-73,252L108,272Z" fill="#eeeefa" stroke="#eeeefa"/><path d="M91,99L108,272L229,213Z" fill="#ebebf8" stroke="#ebebf8"/><path d="M91,99L229,213L233,105Z" fill="#efeff7" stroke="#efeff7"/><path d="M233,105L229,213L398,208Z" fill="#e6e6f4" stroke="#e6e6f4"/><path d="M233,105L398,208L428,103Z" fill="#e5e6f2" stroke="#e5e6f2"/><path d="M428,103L398,208L548,196Z" fill="#dbdcef" stroke="#dbdcef"/><path d="M428,103L548,196L582,107Z" fill="#dcdcec" stroke="#dcdcec"/><path d="M582,107L548,196L730,254Z" fill="#cfcfe8" stroke="#cfcfe8"/><path d="M582,107L730,254L805,176Z" fill="#cbc9e5" stroke="#cbc9e5"/><path d="M582,107L805,176L693,16Z" fill="#d1cfe5" stroke="#d1cfe5"/><path d="M693,16L805,176L806,35Z" fill="#cccae3" stroke="#cccae3"/><path d="M806,35L805,176L1019,100Z" fill="#c5c4df" stroke="#c5c4df"/><path d="M1019,100L805,176L1017,237Z" fill="#bdbcdd" stroke="#bdbcdd"/><path d="M1019,100L1017,237L1177,213Z" fill="#b6b0d8" stroke="#b6b0d8"/><path d="M1019,100L1177,213L1125,17Z" fill="#b9b2d6" stroke="#b9b2d6"/><path d="M1125,17L1177,213L1253,47Z" fill="#b6abd3" stroke="#b6abd3"/><path d="M1253,47L1177,213L1237,226Z" fill="#b1a4d1" stroke="#b1a4d1"/><path d="M1253,47L1237,226L1425,252Z" fill="#aa98cc" stroke="#aa98cc"/><path d="M1253,47L1425,252L1442,35Z" fill="#aa94c8" stroke="#aa94c8"/><path d="M1442,35L1425,252L1540,169Z" fill="#a286c2" stroke="#a286c2"/><path d="M1442,35L1540,169L1576,69Z" fill="#a081bf" stroke="#a081bf"/><path d="M1576,69L1540,169L1687,266Z" fill="#977cba" stroke="#977cba"/><path d="M1576,69L1687,266L1753,84Z" fill="#967fb6" stroke="#967fb6"/><path d="M1753,84L1687,266L1885,258Z" fill="#8878b0" stroke="#8878b0"/><path d="M1753,84L1885,258L1859,33Z" fill="#8c80ac" stroke="#8c80ac"/><path d="M1859,33L1885,258L1933,530Z" fill="#7870a8" stroke="#7870a8"/><path d="M-73,252L-101,350L102,349Z" fill="#e4e2f9" stroke="#e4e2f9"/><path d="M-73,252L102,349L108,272Z" fill="#e4e3f9" stroke="#e4e3f9"/><path d="M108,272L102,349L273,394Z" fill="#d8d7f3" stroke="#d8d7f3"/><path d="M108,272L273,394L229,213Z" fill="#dcdcf5" stroke="#dcdcf5"/><path d="M229,213L273,394L398,208Z" fill="#d9daf3" stroke="#d9daf3"/><path d="M398,208L273,394L434,326Z" fill="#d0d0ef" stroke="#d0d0ef"/><path d="M398,208L434,326L548,196Z" fill="#d3d4ef" stroke="#d3d4ef"/><path d="M548,196L434,326L653,377Z" fill="#c7c6e9" stroke="#c7c6e9"/><path d="M548,196L653,377L730,254Z" fill="#c3c3e7" stroke="#c3c3e7"/><path d="M730,254L653,377L838,429Z" fill="#b3b0de" stroke="#b3b0de"/><path d="M730,254L838,429L805,176Z" fill="#b9b7e1" stroke="#b9b7e1"/><path d="M805,176L838,429L938,426Z" fill="#adaadb" stroke="#adaadb"/><path d="M805,176L938,426L1017,237Z" fill="#b2b1de" stroke="#b2b1de"/><path d="M1017,237L938,426L1087,346Z" fill="#a5a1d7" stroke="#a5a1d7"/><path d="M1017,237L1087,346L1177,213Z" fill="#aba4d7" stroke="#aba4d7"/><path d="M1177,213L1087,346L1237,226Z" fill="#a89ed3" stroke="#a89ed3"/><path d="M1237,226L1087,346L1289,429Z" fill="#9d90ce" stroke="#9d90ce"/><path d="M1237,226L1289,429L1425,252Z" fill="#9a87c9" stroke="#9a87c9"/><path d="M1425,252L1289,429L1389,433Z" fill="#8d76c2" stroke="#8d76c2"/><path d="M1425,252L1389,433L1625,394Z" fill="#8869bc" stroke="#8869bc"/><path d="M1425,252L1625,394L1540,169Z" fill="#9071be" stroke="#9071be"/><path d="M1540,169L1625,394L1687,266Z" fill="#8970b8" stroke="#8970b8"/><path d="M1687,266L1625,394L1773,407Z" fill="#7a64af" stroke="#7a64af"/><path d="M1687,266L1773,407L1837,345Z" fill="#7766ac" stroke="#7766ac"/><path d="M1687,266L1837,345L1885,258Z" fill="#7b6ead" stroke="#7b6ead"/><path d="M1885,258L1837,345L1933,530Z" fill="#6a60a2" stroke="#6a60a2"/><path d="M-101,350L-119,1106L-85,865Z" fill="#af96d2" stroke="#af96d2"/><path d="M-101,350L-85,865L-69,492Z" fill="#c6c1e9" stroke="#c6c1e9"/><path d="M-101,350L-69,492L102,349Z" fill="#d9d6f4" stroke="#d9d6f4"/><path d="M102,349L-69,492L68,494Z" fill="#d0cdf0" stroke="#d0cdf0"/><path d="M102,349L68,494L236,472Z" fill="#cccaee" stroke="#cccaee"/><path d="M102,349L236,472L273,394Z" fill="#cdcbee" stroke="#cdcbee"/><path d="M273,394L236,472L360,573Z" fill="#bebce7" stroke="#bebce7"/><path d="M273,394L360,573L484,428Z" fill="#bbb9e5" stroke="#bbb9e5"/><path d="M273,394L484,428L434,326Z" fill="#c5c3e9" stroke="#c5c3e9"/><path d="M434,326L484,428L653,377Z" fill="#bdbce6" stroke="#bdbce6"/><path d="M484,428L360,573L546,490Z" fill="#b1b0e0" stroke="#b1b0e0"/><path d="M484,428L546,490L653,377Z" fill="#b4b2e1" stroke="#b4b2e1"/><path d="M653,377L546,490L703,492Z" fill="#aca9dd" stroke="#aca9dd"/><path d="M653,377L703,492L838,429Z" fill="#a9a5da" stroke="#a9a5da"/><path d="M838,429L703,492L878,528Z" fill="#9e9ad4" stroke="#9e9ad4"/><path d="M838,429L878,528L938,426Z" fill="#9c98d4" stroke="#9c98d4"/><path d="M938,426L878,528L1010,485Z" fill="#9692d1" stroke="#9692d1"/><path d="M938,426L1010,485L1087,346Z" fill="#9a95d2" stroke="#9a95d2"/><path d="M1087,346L1010,485L1065,562Z" fill="#928bcd" stroke="#928bcd"/><path d="M1087,346L1065,562L1289,429Z" fill="#9185ca" stroke="#9185ca"/><path d="M1289,429L1065,562L1267,550Z" fill="#8477c2" stroke="#8477c2"/><path d="M1289,429L1267,550L1402,498Z" fill="#806cbd" stroke="#806cbd"/><path d="M1289,429L1402,498L1389,433Z" fill="#836cbd" stroke="#836cbd"/><path d="M1389,433L1402,498L1625,394Z" fill="#7d5fb7" stroke="#7d5fb7"/><path d="M1625,394L1402,498L1602,562Z" fill="#7252b0" stroke="#7252b0"/><path d="M1625,394L1602,562L1680,552Z" fill="#6a4fa9" stroke="#6a4fa9"/><path d="M1625,394L1680,552L1773,407Z" fill="#6d56a9" stroke="#6d56a9"/><path d="M1773,407L1680,552L1933,530Z" fill="#6050a0" stroke="#6050a0"/><path d="M1773,407L1933,530L1837,345Z" fill="#6659a2" stroke="#6659a2"/><path d="M-69,492L-85,865L-16,701Z" fill="#b9a8dc" stroke="#b9a8dc"/><path d="M-69,492L-16,701L103,618Z" fill="#beb5e4" stroke="#beb5e4"/><path d="M-69,492L103,618L68,494Z" fill="#c4c2ea" stroke="#c4c2ea"/><path d="M68,494L103,618L236,472Z" fill="#c0bee8" stroke="#c0bee8"/><path d="M236,472L103,618L248,713Z" fill="#b6addf" stroke="#b6addf"/><path d="M236,472L248,713L360,573Z" fill="#b2acdf" stroke="#b2acdf"/><path d="M360,573L248,713L391,650Z" fill="#a99dd7" stroke="#a99dd7"/><path d="M360,573L391,650L510,669Z" fill="#a59bd6" stroke="#a59bd6"/><path d="M360,573L510,669L546,490Z" fill="#a7a2da" stroke="#a7a2da"/><path d="M546,490L510,669L637,693Z" fill="#9e94d1" stroke="#9e94d1"/><path d="M546,490L637,693L703,492Z" fill="#9f9bd5" stroke="#9f9bd5"/><path d="M703,492L637,693L799,669Z" fill="#9489cb" stroke="#9489cb"/><path d="M703,492L799,669L878,528Z" fill="#958fcf" stroke="#958fcf"/><path d="M878,528L799,669L1012,622Z" fill="#8a80c7" stroke="#8a80c7"/><path d="M878,528L1012,622L1010,485Z" fill="#8c88cb" stroke="#8c88cb"/><path d="M1010,485L1012,622L1065,562Z" fill="#8880c7" stroke="#8880c7"/><path d="M1065,562L1012,622L1066,707Z" fill="#8070bf" stroke="#8070bf"/><path d="M1065,562L1066,707L1267,550Z" fill="#7e6dbd" stroke="#7e6dbd"/><path d="M1267,550L1066,707L1299,636Z" fill="#7861b7" stroke="#7861b7"/><path d="M1267,550L1299,636L1402,498Z" fill="#7761b8" stroke="#7761b8"/><path d="M1402,498L1299,636L1389,647Z" fill="#7255b2" stroke="#7255b2"/><path d="M1402,498L1389,647L1602,562Z" fill="#6e4dae" stroke="#6e4dae"/><path d="M1602,562L1389,647L1599,681Z" fill="#6339a4" stroke="#6339a4"/><path d="M1602,562L1599,681L1680,552Z" fill="#603fa1" stroke="#603fa1"/><path d="M1680,552L1599,681L1760,719Z" fill="#573499" stroke="#573499"/><path d="M1680,552L1760,719L1877,668Z" fill="#523594" stroke="#523594"/><path d="M1680,552L1877,668L1933,530Z" fill="#544297" stroke="#544297"/><path d="M1933,530L1877,668L1923,947Z" fill="#402783" stroke="#402783"/><path d="M-16,701L-85,865L69,773Z" fill="#aa90d0" stroke="#aa90d0"/><path d="M-16,701L69,773L103,618Z" fill="#b2a0d8" stroke="#b2a0d8"/><path d="M103,618L69,773L248,713Z" fill="#ad9bd6" stroke="#ad9bd6"/><path d="M248,713L69,773L202,872Z" fill="#a086ca" stroke="#a086ca"/><path d="M248,713L202,872L385,794Z" fill="#9980c6" stroke="#9980c6"/><path d="M248,713L385,794L391,650Z" fill="#a08dce" stroke="#a08dce"/><path d="M391,650L385,794L510,669Z" fill="#9c8bcd" stroke="#9c8bcd"/><path d="M510,669L385,794L483,811Z" fill="#937dc5" stroke="#937dc5"/><path d="M510,669L483,811L627,777Z" fill="#8e79c3" stroke="#8e79c3"/><path d="M510,669L627,777L637,693Z" fill="#917ec6" stroke="#917ec6"/><path d="M637,693L627,777L799,669Z" fill="#8b77c2" stroke="#8b77c2"/><path d="M799,669L627,777L845,824Z" fill="#8068ba" stroke="#8068ba"/><path d="M799,669L845,824L943,780Z" fill="#7a62b6" stroke="#7a62b6"/><path d="M799,669L943,780L1012,622Z" fill="#806ebd" stroke="#806ebd"/><path d="M1012,622L943,780L1066,707Z" fill="#7964b8" stroke="#7964b8"/><path d="M1066,707L943,780L1146,792Z" fill="#6f53af" stroke="#6f53af"/><path d="M1066,707L1146,792L1299,636Z" fill="#7153b0" stroke="#7153b0"/><path d="M1299,636L1146,792L1301,882Z" fill="#643ea4" stroke="#643ea4"/><path d="M1299,636L1301,882L1389,647Z" fill="#653fa5" stroke="#653fa5"/><path d="M1389,647L1301,882L1406,871Z" fill="#58289a" stroke="#58289a"/><path d="M1389,647L1406,871L1599,681Z" fill="#5b2b9c" stroke="#5b2b9c"/><path d="M1599,681L1406,871L1594,884Z" fill="#4b118e" stroke="#4b118e"/><path d="M1599,681L1594,884L1711,858Z" fill="#451288" stroke="#451288"/><path d="M1599,681L1711,858L1760,719Z" fill="#491e8c" stroke="#491e8c"/><path d="M1760,719L1711,858L1849,832Z" fill="#3d1381" stroke="#3d1381"/><path d="M1760,719L1849,832L1877,668Z" fill="#422185" stroke="#422185"/><path d="M1877,668L1849,832L1923,947Z" fill="#331079" stroke="#331079"/><path d="M-85,865L-119,1106L-49,992Z" fill="#907cb7" stroke="#907cb7"/><path d="M-85,865L-49,992L130,934Z" fill="#9478bc" stroke="#9478bc"/><path d="M-85,865L130,934L69,773Z" fill="#9c7dc4" stroke="#9c7dc4"/><path d="M69,773L130,934L202,872Z" fill="#9778c2" stroke="#9778c2"/><path d="M202,872L130,934L247,1028Z" fill="#886fb5" stroke="#886fb5"/><path d="M202,872L247,1028L356,999Z" fill="#816cb1" stroke="#816cb1"/><path d="M202,872L356,999L385,794Z" fill="#8969b9" stroke="#8969b9"/><path d="M385,794L356,999L483,811Z" fill="#8667b9" stroke="#8667b9"/><path d="M483,811L356,999L568,1014Z" fill="#7860ae" stroke="#7860ae"/><path d="M483,811L568,1014L627,777Z" fill="#7d5db4" stroke="#7d5db4"/><path d="M627,777L568,1014L733,1021Z" fill="#6e53a7" stroke="#6e53a7"/><path d="M627,777L733,1021L812,961Z" fill="#6b4da6" stroke="#6b4da6"/><path d="M627,777L812,961L845,824Z" fill="#7352ad" stroke="#7352ad"/><path d="M845,824L812,961L990,946Z" fill="#6344a3" stroke="#6344a3"/><path d="M845,824L990,946L943,780Z" fill="#6949a9" stroke="#6949a9"/><path d="M943,780L990,946L1146,792Z" fill="#6544a7" stroke="#6544a7"/><path d="M1146,792L990,946L1131,988Z" fill="#58349b" stroke="#58349b"/><path d="M1146,792L1131,988L1301,882Z" fill="#572a99" stroke="#572a99"/><path d="M1301,882L1131,988L1271,977Z" fill="#4c268e" stroke="#4c268e"/><path d="M1301,882L1271,977L1406,871Z" fill="#4b1a8e" stroke="#4b1a8e"/><path d="M1406,871L1271,977L1477,934Z" fill="#451388" stroke="#451388"/><path d="M1406,871L1477,934L1594,884Z" fill="#420585" stroke="#420585"/><path d="M1594,884L1477,934L1563,943Z" fill="#3b007f" stroke="#3b007f"/><path d="M1594,884L1563,943L1723,928Z" fill="#36007b" stroke="#36007b"/><path d="M1594,884L1723,928L1711,858Z" fill="#37007b" stroke="#37007b"/><path d="M1711,858L1723,928L1849,832Z" fill="#330378" stroke="#330378"/><path d="M1849,832L1723,928L1923,947Z" fill="#2b0071" stroke="#2b0071"/><path d="M-49,992L-119,1106L102,1137Z" fill="#8079aa" stroke="#8079aa"/><path d="M-49,992L102,1137L130,934Z" fill="#8475af" stroke="#8475af"/><path d="M130,934L102,1137L247,1028Z" fill="#7d71ab" stroke="#7d71ab"/><path d="M247,1028L102,1137L222,1161Z" fill="#7170a1" stroke="#7170a1"/><path d="M247,1028L222,1161L411,1158Z" fill="#6b6a9d" stroke="#6b6a9d"/><path d="M247,1028L411,1158L356,999Z" fill="#6f68a2" stroke="#6f68a2"/><path d="M356,999L411,1158L483,1079Z" fill="#68639e" stroke="#68639e"/><path d="M356,999L483,1079L568,1014Z" fill="#6c60a2" stroke="#6c60a2"/><path d="M568,1014L483,1079L639,1159Z" fill="#5e5998" stroke="#5e5998"/><path d="M568,1014L639,1159L733,1021Z" fill="#5c5397" stroke="#5c5397"/><path d="M733,1021L639,1159L795,1117Z" fill="#524e8f" stroke="#524e8f"/><path d="M733,1021L795,1117L812,961Z" fill="#584a96" stroke="#584a96"/><path d="M812,961L795,1117L1002,1085Z" fill="#4f4591" stroke="#4f4591"/><path d="M812,961L1002,1085L990,946Z" fill="#534196" stroke="#534196"/><path d="M990,946L1002,1085L1131,988Z" fill="#4d3890" stroke="#4d3890"/><path d="M1131,988L1002,1085L1121,1084Z" fill="#453489" stroke="#453489"/><path d="M1131,988L1121,1084L1271,977Z" fill="#452c89" stroke="#452c89"/><path d="M1271,977L1121,1084L1330,1128Z" fill="#3b2580" stroke="#3b2580"/><path d="M1271,977L1330,1128L1477,934Z" fill="#3a167f" stroke="#3a167f"/><path d="M1477,934L1330,1128L1429,1156Z" fill="#2f1074" stroke="#2f1074"/><path d="M1477,934L1429,1156L1568,1127Z" fill="#29066f" stroke="#29066f"/><path d="M1477,934L1568,1127L1563,943Z" fill="#300076" stroke="#300076"/><path d="M1563,943L1568,1127L1688,1078Z" fill="#25006c" stroke="#25006c"/><path d="M1563,943L1688,1078L1723,928Z" fill="#2b0071" stroke="#2b0071"/><path d="M1723,928L1688,1078L1923,947Z" fill="#230069" stroke="#230069"/><path d="M1923,947L1688,1078L1825,1167Z" fill="#15005d" stroke="#15005d"/><path d="M-119,1106L222,1161L102,1137Z" fill="#7675a1" stroke="#7675a1"/><path d="M222,1161L1825,1167L639,1159Z" fill="#454382" stroke="#454382"/><path d="M222,1161L639,1159L411,1158Z" fill="#626294" stroke="#626294"/><path d="M411,1158L639,1159L483,1079Z" fill="#5d5d94" stroke="#5d5d94"/><path d="M639,1159L1825,1167L1429,1156Z" fill="#301e70" stroke="#301e70"/><path d="M639,1159L1429,1156L1330,1128Z" fill="#39307a" stroke="#39307a"/><path d="M639,1159L1330,1128L795,1117Z" fill="#434285" stroke="#434285"/><path d="M795,1117L1330,1128L1002,1085Z" fill="#3e3883" stroke="#3e3883"/><path d="M1002,1085L1330,1128L1121,1084Z" fill="#3a2e80" stroke="#3a2e80"/><path d="M1429,1156L1825,1167L1568,1127Z" fill="#1b005f" stroke="#1b005f"/><path d="M1568,1127L1825,1167L1688,1078Z" fill="#15005d" stroke="#15005d"/></g></svg>