<svg width="640" height="480" xmlns="http://www.w3.org/2000/svg">
 <!-- Created with SVG-edit - http://svg-edit.googlecode.com/ -->
 <g>
  <title>Layer 1</title>
  <path id="svg_2" d="m103,134l-71,74l-1,82l131,-1l-1,-72l-58,0" stroke-width="5" stroke="#000000" fill="#FF0000"/>
  <path id="svg_3" d="m273,186l-95,-3l1,95l104,2l-3,-94l9,101" stroke-width="5" stroke="#000000" fill="#FF0000"/>
  <path id="svg_5" d="m306,188l-4,93l80,1l0,-99" stroke-width="5" stroke="#000000" fill="#FF0000"/>
  <path id="svg_7" d="m470,186l-72,-2l-3,90l69,2l7,-83l2,206l-79,-2" stroke-width="5" stroke="#000000" fill="#FF0000"/>
  <path id="svg_9" d="m495,227l72,1c0,0 2,-55 -1,-55c-3,0 -78,3 -78,3c0,0 2,98 2,98c0,0 76,-2 76,-2" stroke-width="5" stroke="#000000" fill="#FF0000"/>
 </g>
</svg>